Format                           : AVI
Format/Info                      : Audio Video Interleave
File size                        : 898 MiB
Duration                         : 2h 11mn
Overall bit rate                 : 952 Kbps

Video
ID                               : 0
Format                           : AVC
Format/Info                      : Advanced Video Codec
Format profile                   : High@L2.1
Format settings, CABAC           : Yes
Format settings, ReFrames        : 2 frames
Codec ID                         : H264
Duration                         : 2h 11mn
Bit rate                         : 811 Kbps
Width                            : 640 pixels
Height                           : 272 pixels
Display aspect ratio             : 2.35:1
Frame rate                       : 23.976 fps
Resolution                       : 8 bits
Colorimetry                      : 4:2:0
Scan type                        : Progressive
Bits/(Pixel*Frame)               : 0.194
Stream size                      : 765 MiB (85%)
Writing library                  : x264 core 68

Audio
ID                               : 1
Format                           : MPEG Audio
Format version                   : Version 1
Format profile                   : Layer 3
Codec ID                         : 55
Codec ID/Hint                    : MP3
Duration                         : 2h 11mn
Bit rate mode                    : Constant
Bit rate                         : 128 Kbps
Channel(s)                       : 2 channels
Sampling rate                    : 48.0 KHz
Stream size                      : 121 MiB (13%)
Alignment                        : Split accross interleaves
Interleave, duration             : 24 ms (0.58 video frame)